<?xml version="1.0" encoding="UTF-8" standalone="no"?>
<svg width="261px" height="65px" viewBox="0 0 261 65" version="1.1" xmlns="http://www.w3.org/2000/svg" xmlns:xlink="http://www.w3.org/1999/xlink">
    <!-- Generator: Sketch 3.7.2 (28276) - http://www.bohemiancoding.com/sketch -->
    <title>Slice 1</title>
    <desc>Created with Sketch.</desc>
    <defs></defs>
    <g id="Page-1" stroke="none" stroke-width="1" fill="none" fill-rule="evenodd">
        <path d="M3.48632812,4.60546875 L5.390625,12.8476562 L5.80078125,15.1425781 L6.22070312,12.8964844 L7.84179688,4.60546875 L11.015625,4.60546875 L12.7246094,12.8476562 L13.1640625,15.1425781 L13.6035156,12.9355469 L15.5273438,4.60546875 L18.5839844,4.60546875 L14.53125,19 L11.6601562,19 L9.921875,10.5820312 L9.4140625,7.79882812 L8.90625,10.5820312 L7.16796875,19 L4.375,19 L0.29296875,4.60546875 L3.48632812,4.60546875 Z M20.3808594,19 L20.3808594,4.60546875 L23.359375,4.60546875 L23.359375,10.09375 L28.984375,10.09375 L28.984375,4.60546875 L31.9726562,4.60546875 L31.9726562,19 L28.984375,19 L28.984375,12.5742188 L23.359375,12.5742188 L23.359375,19 L20.3808594,19 Z M38.7792969,13.5605469 L42.4316406,13.5605469 L40.6347656,7.89648438 L38.7792969,13.5605469 Z M38.9648438,4.60546875 L42.3632812,4.60546875 L47.4609375,19 L44.1992188,19 L43.2714844,16.0410156 L37.96875,16.0410156 L36.9726562,19 L33.828125,19 L38.9648438,4.60546875 Z M58.2714844,4.60546875 L58.2714844,7.15429688 L53.9648438,7.15429688 L53.9648438,19 L50.9375,19 L50.9375,7.15429688 L46.6113281,7.15429688 L46.6113281,4.60546875 L58.2714844,4.60546875 Z M76.0449219,4.60546875 L76.0449219,7.15429688 L71.7382812,7.15429688 L71.7382812,19 L68.7109375,19 L68.7109375,7.15429688 L64.3847656,7.15429688 L64.3847656,4.60546875 L76.0449219,4.60546875 Z M77.7832031,19 L77.7832031,4.60546875 L80.7617188,4.60546875 L80.7617188,10.09375 L86.3867188,10.09375 L86.3867188,4.60546875 L89.375,4.60546875 L89.375,19 L86.3867188,19 L86.3867188,12.5742188 L80.7617188,12.5742188 L80.7617188,19 L77.7832031,19 Z M102.890625,7.15429688 L95.2734375,7.15429688 L95.2734375,10.2109375 L102.265625,10.2109375 L102.265625,12.7109375 L95.2734375,12.7109375 L95.2734375,16.4121094 L103.242188,16.4121094 L103.242188,19 L92.3339844,19 L92.3339844,4.60546875 L102.890625,4.60546875 L102.890625,7.15429688 Z" id="WHAT-THE" fill="#F2A500"></path>
        <path d="M22.90625,47.1738281 L22.90625,47.7714844 C22.9531252,49.7754006 23.1728496,51.1845662 23.5654297,51.9990234 C23.9580098,52.8134806 24.7988217,53.2207031 26.0878906,53.2207031 C27.3652408,53.2207031 28.2089823,52.7753951 28.6191406,51.8847656 C28.8652356,51.3574192 28.9882812,50.4668031 28.9882812,49.2128906 L28.9882812,31.0898438 L34.4023438,31.0898438 L34.4023438,49.125 C34.4023438,51.328136 34.0214882,53.0742123 33.2597656,54.3632812 C31.9706967,56.5429796 29.6445481,57.6328125 26.28125,57.6328125 C22.9179519,57.6328125 20.6621151,56.7509854 19.5136719,54.9873047 C18.3652286,53.223624 17.7910156,50.8183746 17.7910156,47.7714844 L17.7910156,47.1738281 L22.90625,47.1738281 Z M46.8476562,47.2089844 L53.421875,47.2089844 L50.1875,37.0136719 L46.8476562,47.2089844 Z M47.1816406,31.0898438 L53.2988281,31.0898438 L62.4746094,57 L56.6035156,57 L54.9335938,51.6738281 L45.3886719,51.6738281 L43.5957031,57 L37.9355469,57 L47.1816406,31.0898438 Z M78.2773438,31.0898438 L83.9023438,31.0898438 L75.0605469,57 L69.9453125,57 L61.1914062,31.0898438 L66.9746094,31.0898438 L72.5996094,50.7597656 L78.2773438,31.0898438 Z M91.5488281,47.2089844 L98.1230469,47.2089844 L94.8886719,37.0136719 L91.5488281,47.2089844 Z M91.8828125,31.0898438 L98,31.0898438 L107.175781,57 L101.304688,57 L99.6347656,51.6738281 L90.0898438,51.6738281 L88.296875,57 L82.6367188,57 L91.8828125,31.0898438 Z M114.382812,49.0019531 C114.546876,50.1855528 114.869138,51.0703096 115.349609,51.65625 C116.22852,52.7226616 117.734364,53.2558594 119.867188,53.2558594 C121.144538,53.2558594 122.181637,53.1152358 122.978516,52.8339844 C124.490242,52.2949192 125.246094,51.2929761 125.246094,49.828125 C125.246094,48.972652 124.871098,48.3105492 124.121094,47.8417969 C123.37109,47.3847633 122.193367,46.9804705 120.587891,46.6289062 L117.845703,46.0136719 C115.150377,45.4042938 113.287115,44.7421911 112.255859,44.0273438 C110.509757,42.8320253 109.636719,40.9629033 109.636719,38.4199219 C109.636719,36.0995978 110.48046,34.1718827 112.167969,32.6367188 C113.855477,31.1015548 116.333968,30.3339844 119.603516,30.3339844 C122.333998,30.3339844 124.663076,31.05761 126.59082,32.5048828 C128.518564,33.9521557 129.529296,36.0527206 129.623047,38.8066406 L124.419922,38.8066406 C124.326171,37.2480391 123.646491,36.1406283 122.380859,35.484375 C121.537105,35.0507791 120.488288,34.8339844 119.234375,34.8339844 C117.839837,34.8339844 116.726567,35.1152316 115.894531,35.6777344 C115.062496,36.2402372 114.646484,37.0253856 114.646484,38.0332031 C114.646484,38.958989 115.056637,39.6503883 115.876953,40.1074219 C116.4043,40.4121109 117.529288,40.7695292 119.251953,41.1796875 L123.716797,42.2519531 C125.673838,42.7207055 127.150386,43.3476523 128.146484,44.1328125 C129.693367,45.3515686 130.466797,47.1152228 130.466797,49.4238281 C130.466797,51.7910275 129.561532,53.7568281 127.750977,55.3212891 C125.940421,56.88575 123.382829,57.6679688 120.078125,57.6679688 C116.703108,57.6679688 114.048838,56.8974686 112.115234,55.3564453 C110.181631,53.815422 109.214844,51.6972791 109.214844,49.0019531 L114.382812,49.0019531 Z M136.988281,33.796875 C139.097667,31.6640518 141.781234,30.5976562 145.039062,30.5976562 C149.398459,30.5976562 152.585927,32.0273295 154.601562,34.8867188 C155.714849,36.4921955 156.3125,38.1035075 156.394531,39.7207031 L150.980469,39.7207031 C150.628904,38.4785094 150.177737,37.5410188 149.626953,36.9082031 C148.642573,35.7831975 147.183603,35.2207031 145.25,35.2207031 C143.28124,35.2207031 141.728521,36.0146405 140.591797,37.6025391 C139.455072,39.1904376 138.886719,41.4374855 138.886719,44.34375 C138.886719,47.2500145 139.487299,49.4267506 140.688477,50.8740234 C141.889654,52.3212963 143.416006,53.0449219 145.267578,53.0449219 C147.166025,53.0449219 148.613276,52.4238343 149.609375,51.1816406 C150.160159,50.5136685 150.617186,49.5117254 150.980469,48.1757812 L156.341797,48.1757812 C155.873045,51.0000141 154.674814,53.2968662 152.74707,55.0664062 C150.819326,56.8359463 148.349624,57.7207031 145.337891,57.7207031 C141.611309,57.7207031 138.681651,56.5254026 136.548828,54.1347656 C134.416005,51.7324099 133.349609,48.439474 133.349609,44.2558594 C133.349609,39.7323993 134.562488,36.246106 136.988281,33.796875 L136.988281,33.796875 Z M165.886719,35.5898438 L165.886719,42.5507812 L172.021484,42.5507812 C173.24024,42.5507812 174.154294,42.4101577 174.763672,42.1289062 C175.841802,41.6367163 176.380859,40.6640698 176.380859,39.2109375 C176.380859,37.6406171 175.85938,36.5859402 174.816406,36.046875 C174.230466,35.742186 173.351568,35.5898438 172.179688,35.5898438 L165.886719,35.5898438 Z M177.49707,31.7578125 C178.475591,32.1679708 179.304684,32.7714804 179.984375,33.5683594 C180.546878,34.2246127 180.992186,34.9511679 181.320312,35.7480469 C181.648439,36.5449259 181.8125,37.4531199 181.8125,38.4726562 C181.8125,39.7031312 181.501956,40.91308 180.880859,42.1025391 C180.259763,43.2919981 179.234382,44.13281 177.804688,44.625 C179.000006,45.1054712 179.846677,45.7880815 180.344727,46.6728516 C180.842776,47.5576216 181.091797,48.908194 181.091797,50.7246094 L181.091797,52.4648438 C181.091797,53.6484434 181.138671,54.4511698 181.232422,54.8730469 C181.373048,55.541019 181.701169,56.0332015 182.216797,56.3496094 L182.216797,57 L176.257812,57 C176.093749,56.4257784 175.976563,55.9628924 175.90625,55.6113281 C175.765624,54.884762 175.689453,54.1406288 175.677734,53.3789062 L175.642578,50.9707031 C175.619141,49.3183511 175.317386,48.2167996 174.737305,47.6660156 C174.157224,47.1152316 173.07032,46.8398438 171.476562,46.8398438 L165.886719,46.8398438 L165.886719,57 L160.595703,57 L160.595703,31.0898438 L173.304688,31.0898438 C175.121103,31.1250002 176.51855,31.3476542 177.49707,31.7578125 L177.49707,31.7578125 Z M191.427734,57 L186.048828,57 L186.048828,31.0898438 L191.427734,31.0898438 L191.427734,57 Z M209.999023,36.4511719 C209.290036,35.8769503 208.296881,35.5898438 207.019531,35.5898438 L201.974609,35.5898438 L201.974609,43.21875 L207.019531,43.21875 C208.296881,43.21875 209.290036,42.9082062 209.999023,42.2871094 C210.708011,41.6660125 211.0625,40.6816474 211.0625,39.3339844 C211.0625,37.9863214 210.708011,37.0253935 209.999023,36.4511719 L209.999023,36.4511719 Z M214.103516,45.7851562 C212.556633,47.0507876 210.347671,47.6835938 207.476562,47.6835938 L201.974609,47.6835938 L201.974609,57 L196.595703,57 L196.595703,31.0898438 L207.880859,31.0898438 C210.482435,31.0898438 212.556633,31.7578058 214.103516,33.09375 C215.650398,34.4296942 216.423828,36.4980329 216.423828,39.2988281 C216.423828,42.3574372 215.650398,44.5195249 214.103516,45.7851562 L214.103516,45.7851562 Z M239.310547,31.0898438 L239.310547,35.6777344 L231.558594,35.6777344 L231.558594,57 L226.109375,57 L226.109375,35.6777344 L218.322266,35.6777344 L218.322266,31.0898438 L239.310547,31.0898438 Z" id="JAVASCRIPT" fill="#FFFFFF"></path>
        <path d="M3.65625,50.0449219 C3.65625,48.568352 3.21094195,47.4375039 2.3203125,46.6523438 C1.7812473,46.1718726 1.00781754,45.791017 0,45.5097656 L0,43.3828125 C1.13672443,42.9960918 1.93945078,42.5683617 2.40820312,42.0996094 C3.24023854,41.2910116 3.65625,40.0546958 3.65625,38.390625 L3.65625,33.6796875 C3.65625,33.0820283 3.75585838,32.4550814 3.95507812,31.7988281 C4.30664238,30.6621037 4.90429266,29.759769 5.74804688,29.0917969 C6.52148824,28.4824188 7.42968229,28.078126 8.47265625,27.8789062 C9.10547191,27.7499994 10.013666,27.6796876 11.1972656,27.6679688 L11.1972656,30.4628906 C10.2246045,30.6738292 9.56250176,30.9550764 9.2109375,31.3066406 C8.6718723,31.8457058 8.40234375,32.7890558 8.40234375,34.1367188 L8.40234375,38.2148438 C8.40234375,39.5273503 8.22656426,40.5703086 7.875,41.34375 C7.27734076,42.6445378 6.10547748,43.6992147 4.359375,44.5078125 C5.94141416,45.152347 7.00488009,45.9023395 7.54980469,46.7578125 C8.09472929,47.6132855 8.37890613,48.7968674 8.40234375,50.3085938 L8.40234375,54.7558594 C8.40234375,56.0566471 8.71874684,56.9941378 9.3515625,57.5683594 C9.70312676,57.9082048 10.318355,58.20703 11.1972656,58.4648438 L11.1972656,61.2597656 L9.94921875,61.2246094 C8.27342912,61.1777341 6.80567036,60.6767626 5.54589844,59.7216797 C4.28612651,58.7665968 3.65625,57.3750091 3.65625,55.546875 L3.65625,50.0449219 Z" id="{" fill="#F2A500"></path>
        <path d="M246.791016,61.2597656 L246.791016,58.4648438 C247.669926,58.20703 248.285154,57.9023455 248.636719,57.5507812 C249.234378,56.9648408 249.544922,56.0332095 249.568359,54.7558594 L249.568359,50.3085938 C249.568359,48.6445229 249.890622,47.4111368 250.535156,46.6083984 C251.179691,45.80566 252.205071,45.1054717 253.611328,44.5078125 C252.076164,43.7578087 251.018558,42.9052782 250.438477,41.9501953 C249.858396,40.9951124 249.568359,39.7500077 249.568359,38.2148438 L249.568359,34.1367188 C249.568359,32.835931 249.360354,31.9511742 248.944336,31.4824219 C248.528318,31.0136695 247.810552,30.6738292 246.791016,30.4628906 L246.791016,27.6679688 C247.962896,27.6796876 248.865231,27.7499994 249.498047,27.8789062 C250.541021,28.078126 251.455074,28.4824188 252.240234,29.0917969 C253.025395,29.7011749 253.570311,30.4511674 253.875,31.3417969 C254.179689,32.2324263 254.332031,33.0117154 254.332031,33.6796875 L254.332031,38.390625 C254.332031,40.0664146 254.712887,41.2968711 255.474609,42.0820312 C255.943362,42.5507836 256.781244,42.984373 257.988281,43.3828125 L257.988281,45.5097656 C256.992183,45.791017 256.236331,46.1542946 255.720703,46.5996094 C254.794917,47.3964884 254.332031,48.5449144 254.332031,50.0449219 L254.332031,55.546875 C254.332031,57.3281339 253.716803,58.7080029 252.486328,59.6865234 C251.255853,60.665044 249.773446,61.1777341 248.039062,61.2246094 L246.791016,61.2597656 Z" id="}" fill="#F2A500"></path>
    </g>
</svg>
